<?xml version="1.0" encoding="UTF-8" standalone="no"?>
<!-- Created with Inkscape (http://www.inkscape.org/) -->

<svg
   xmlns:dc="http://purl.org/dc/elements/1.1/"
   xmlns:cc="http://creativecommons.org/ns#"
   xmlns:rdf="http://www.w3.org/1999/02/22-rdf-syntax-ns#"
   xmlns:svg="http://www.w3.org/2000/svg"
   xmlns="http://www.w3.org/2000/svg"
   xmlns:sodipodi="http://sodipodi.sourceforge.net/DTD/sodipodi-0.dtd"
   xmlns:inkscape="http://www.inkscape.org/namespaces/inkscape"
   width="210mm"
   height="297mm"
   viewBox="0 0 210 297"
   version="1.1"
   id="svg8"
   inkscape:version="0.92.3 (2405546, 2018-03-11)"
   sodipodi:docname="spem.svg">
  <defs
     id="defs2" />
  <sodipodi:namedview
     id="base"
     pagecolor="#ffffff"
     bordercolor="#666666"
     borderopacity="1.0"
     inkscape:pageopacity="0.0"
     inkscape:pageshadow="2"
     inkscape:zoom="0.38798626"
     inkscape:cx="339.93732"
     inkscape:cy="1108.2371"
     inkscape:document-units="mm"
     inkscape:current-layer="g3864"
     showgrid="false"
     inkscape:window-width="1366"
     inkscape:window-height="713"
     inkscape:window-x="0"
     inkscape:window-y="27"
     inkscape:window-maximized="1" />
  <metadata
     id="metadata5">
    <rdf:RDF>
      <cc:Work
         rdf:about="">
        <dc:format>image/svg+xml</dc:format>
        <dc:type
           rdf:resource="http://purl.org/dc/dcmitype/StillImage" />
        <dc:title></dc:title>
      </cc:Work>
    </rdf:RDF>
  </metadata>
  <g
     inkscape:label="Layer 1"
     inkscape:groupmode="layer"
     id="layer1">
    <g
       id="g3864"
       transform="matrix(0.26458333,0,0,0.26458333,60.268304,39.957291)">
	
	<ellipse
   id="ellipse3814"
   ry="10"
   rx="12"
   cy="65"
   cx="87.953003"
   style="fill:#e6e6e6" />

	
	<path
   id="path3818"
   d="m 76.563,66.438 c -1.554,-1.625 -3.402,-2.688 -5.551,-3.234 -2.138,-0.542 -4.482,-0.552 -6.839,-0.261 -4.733,0.604 -9.467,2.25 -14.178,3.925 -4.729,1.678 -9.464,3.548 -14.531,4.688 -2.529,0.546 -5.175,0.917 -7.883,0.62 -1.347,-0.148 -2.704,-0.485 -3.967,-1.071 -1.267,-0.575 -2.414,-1.408 -3.37,-2.395 -0.388,-0.396 -0.381,-1.028 0.014,-1.416 0.39,-0.382 1.015,-0.377 1.402,0 1.642,1.61 3.822,2.477 6.14,2.641 2.321,0.183 4.729,-0.219 7.089,-0.813 4.737,-1.229 9.351,-3.213 14.048,-5.063 4.702,-1.84 9.492,-3.726 14.75,-4.584 2.62,-0.406 5.397,-0.524 8.181,0.076 2.766,0.574 5.489,2.048 7.478,4.014 l 0.07,0.069 c 0.785,0.776 0.792,2.043 0.016,2.829 -0.775,0.785 -2.043,0.792 -2.828,0.015 -0.014,-0.012 -0.031,-0.03 -0.041,-0.04 z"
   style="fill:#e6e6e6"
   inkscape:connector-curvature="0" />

	<path
   id="path3820"
   d="m 80.953,73 c 0,1.1 -0.9,2 -2,2 h -2 c -1.1,0 -2,-0.9 -2,-2 V 57 c 0,-1.1 0.9,-2 2,-2 h 2 c 1.1,0 2,0.9 2,2 z"
   style="fill:#406a80"
   inkscape:connector-curvature="0" />

	
	
	
	
	
	
	
	
	
	
	
	
	
	
	
	
	
	
	
	
	
</g>
  </g>
</svg>
